# xmcd
#
# Track frame offsets:
#   150
#   13432
#   25742
#   39470
#   50279
#   63560
#   77032
#   89294
#   101334
#   114561
#   125997
#   137358
#   148066
#   162794
#   174163
#   189294
#   207670
#   218677
#   228548
#   242411
#   255418
#   270551
#   283369
#   296703
#
# Disc length: 4138 seconds
#
# Revision: 0
# Processed by: cddbd v1.5PL3 Copyright (c) Steve Scherf et al.
# Submitted via: uFREEDB 1.6.0
#
DISCID=5d102818
DTITLE=Campbell, Glen - Collection (X)
DYEAR=1900
DGENRE=Country
TTITLE0=Gentle On My Mind
TTITLE1=Guess I'm Dumb
TTITLE2=Wichita Lineman
TTITLE3=Try A Little Kindness
TTITLE4=Honey Come Back
TTITLE5=About The Ocean
TTITLE6=By The Time I Get To Phoenix
TTITLE7=Galveston
TTITLE8=Where's The Playground Susie
TTITLE9=Dreams Of An Everyday Housewife
TTITLE10=Burning Bridges
TTITLE11=Reason To Believe
TTITLE12=Rhinestone Cowboy
TTITLE13=True Grit
TTITLE14=Houston
TTITLE15=The Last Time I Saw Her
TTITLE16=It's Only Make Believe
TTITLE17=If This Is Love
TTITLE18=Highwaymen
TTITLE19=I Knew Jesus
TTITLE20=Then You Can Tell Me Goodbye
TTITLE21=Sunflower
TTITLE22=Southern Nights
TTITLE23=Country Boy
EXTD=
EXTT0=
EXTT1=
EXTT2=
EXTT3=
EXTT4=
EXTT5=
EXTT6=
EXTT7=
EXTT8=
EXTT9=
EXTT10=
EXTT11=
EXTT12=
EXTT13=
EXTT14=
EXTT15=
EXTT16=
EXTT17=
EXTT18=
EXTT19=
EXTT20=
EXTT21=
EXTT22=
EXTT23=
PLAYORDER=
